# Blender v2.77 (sub 0) OBJ File: ''
# www.blender.org
mtllib TV.mtl
o Base_Cube.001
v -0.156000 -1.200000 0.300000
v -0.030000 -0.800000 0.300000
v -0.156000 -1.200000 -0.300000
v -0.030000 -0.800000 -0.300000
v 0.156000 -1.200000 0.300000
v 0.030000 -0.800000 0.300000
v 0.156000 -1.200000 -0.300000
v 0.030000 -0.800000 -0.300000
vn -0.9538 0.3004 0.0000
vn 0.0000 0.0000 -1.0000
vn 0.9538 0.3004 0.0000
vn 0.0000 0.0000 1.0000
vn 0.0000 -1.0000 0.0000
vn 0.0000 1.0000 0.0000
usemtl Base
s off
f 2//1 4//1 3//1 1//1
f 4//2 8//2 7//2 3//2
f 8//3 6//3 5//3 7//3
f 6//4 2//4 1//4 5//4
f 1//5 3//5 7//5 5//5
f 6//6 8//6 4//6 2//6
o Tv_Cube
v -0.030000 -1.000000 -1.800000
v -0.030000 -1.000000 1.800000
v 0.030000 -1.000000 1.800000
v 0.030000 -1.000000 -1.800001
v -0.030000 1.000000 -1.799999
v -0.030000 1.000000 1.800001
v 0.030000 1.000000 1.799999
v 0.030000 1.000000 -1.800000
v 0.030000 -0.800000 1.584000
v 0.030000 -0.800000 -1.584001
v 0.030000 0.800000 1.583999
v 0.030000 0.800000 -1.584000
v -0.021108 -0.800000 1.584000
v -0.021108 -0.800000 -1.584001
v -0.021108 0.800000 1.583999
v -0.021108 0.800000 -1.584000
vn 0.0000 1.0000 0.0000
vn 0.0000 -1.0000 0.0000
vn 1.0000 -0.0000 -0.0000
vn -0.0000 0.0000 -1.0000
vn -1.0000 0.0000 0.0000
vn 0.0000 -0.0000 1.0000
usemtl Spec
s off
f 9//7 10//7 11//7 12//7
f 13//8 16//8 15//8 14//8
f 9//9 13//9 14//9 10//9
f 10//10 14//10 15//10 11//10
f 11//11 15//11 19//11 17//11
f 13//12 9//12 12//12 16//12
f 19//7 20//7 24//7 23//7
f 15//11 16//11 20//11 19//11
f 16//11 12//11 18//11 20//11
f 12//11 11//11 17//11 18//11
f 21//11 23//11 24//11 22//11
f 17//12 19//12 23//12 21//12
f 20//10 18//10 22//10 24//10
f 18//8 17//8 21//8 22//8
